<svg xmlns="http://www.w3.org/2000/svg" viewBox="0 0 109.6 72.1" fill="#0C0C0D"><path transform="translate(0.3 70.1) scale(0.100000 -0.100000)" d="M645 0Q632 0 616.5 0.5Q601 1 596 1Q587 1 569.5 0.5Q552 0 542 0L118 608V134Q118 9 209 8H211V0H188Q181 0 156.0 1.5Q131 3 114.0 3.0Q97 3 71.5 1.5Q46 0 39 0H17V8H19Q108 8 108 134V620Q83 657 70 665Q57 673 35 673H33V681H46Q61 681 79.0 680.5Q97 680 108 680Q122 680 142.0 680.5Q162 681 172 681L579 100V547Q579 672 489 673H487V681H510Q517 681 542.0 679.5Q567 678 584.0 678.0Q601 678 626.5 679.5Q652 681 659 681H681V673H679Q589 673 589 547V85Z"/><path transform="translate(43.7 70.1) scale(0.100000 -0.100000)" d="M639 0Q613 0 589.0 1.5Q565 3 547 3Q535 3 516.5 1.5Q498 0 488 0L315 321H180V64Q180 31 191.0 19.5Q202 8 233 8H235V0H213Q201 0 177.5 1.5Q154 3 138.0 3.0Q122 3 98.0 1.5Q74 0 63 0H41V8H42Q73 8 84.0 19.5Q95 31 95 64V617Q95 650 84.0 661.5Q73 673 42 673H41V681H63Q74 681 98.0 680.5Q122 680 138 680Q157 680 185.5 680.5Q214 681 229 681H334Q434 681 498.5 633.0Q563 585 563 502Q563 426 501.5 373.5Q440 321 335 321H328Q347 290 370.0 278.5Q393 267 440 267L530 100Q561 43 581.5 26.5Q602 10 639 8ZM469 501Q469 587 438.5 629.0Q408 671 329 671H180V332H329Q407 332 438.0 372.0Q469 412 469 501Z"/></svg>