<svg xmlns="http://www.w3.org/2000/svg" viewBox="0 0 216 84" width="216" height="84"><path fill="#0C0C0D" d="M66.79 69.65L72.95 79Q71.52 79 69.81 78.94Q68.11 78.89 67.56 78.89L67.56 78.89Q66.57 78.89 64.65 78.94Q62.72 79 61.62 79L61.62 79L14.98 12.12L14.98 64.26Q14.98 78.01 24.99 78.12L24.99 78.12L25.21 78.12L25.21 79L22.68 79Q21.91 79 19.16 78.83Q16.41 78.67 14.54 78.67Q12.67 78.67 9.87 78.83Q7.06 79 6.29 79L6.29 79L3.87 79L3.87 78.12L4.09 78.12Q13.88 78.12 13.88 64.26L13.88 64.26L13.88 10.80Q11.13 6.73 9.70 5.85L9.70 5.85Q8.27 4.97 5.85 4.97L5.85 4.97L5.63 4.97L5.63 4.09L7.06 4.09Q8.71 4.09 10.69 4.14Q12.67 4.20 13.88 4.20L13.88 4.20Q15.42 4.20 17.62 4.14Q19.82 4.09 20.92 4.09L20.92 4.09L65.69 68L65.69 18.83Q65.69 5.08 55.79 4.97L55.79 4.97L55.57 4.97L55.57 4.09L58.10 4.09Q58.87 4.09 61.62 4.25Q64.37 4.42 66.24 4.42Q68.11 4.42 70.92 4.25Q73.72 4.09 74.49 4.09L74.49 4.09L76.91 4.09L76.91 4.97L76.69 4.97Q66.79 4.97 66.79 18.83L66.79 18.83L66.79 69.65Z"></path><polygon points="120.3,30.0 111.0,51.6 100.3,64.0 107.6,45.8" fill="#0C0C0D"></polygon><g transform="translate(-4,0)"><path fill="#0C0C0D" d="M216.63 78.12L216.63 79Q213.77 79 211.13 78.83Q208.49 78.67 206.51 78.67L206.51 78.67Q205.19 78.67 203.16 78.83Q201.12 79 200.02 79L200.02 79L180.99 43.69L166.14 43.69L166.14 71.96Q166.14 75.59 167.35 76.86Q168.56 78.12 171.97 78.12L171.97 78.12L172.19 78.12L172.19 79L169.77 79Q168.45 79 165.87 78.83Q163.28 78.67 161.52 78.67Q159.76 78.67 157.12 78.83Q154.48 79 153.27 79L153.27 79L150.85 79L150.85 78.12L150.96 78.12Q154.37 78.12 155.58 76.86Q156.79 75.59 156.79 71.96L156.79 71.96L156.79 11.13Q156.79 7.50 155.58 6.23Q154.37 4.97 150.96 4.97L150.96 4.97L150.85 4.97L150.85 4.09L153.27 4.09Q154.48 4.09 157.12 4.14Q159.76 4.20 161.52 4.20L161.52 4.20Q163.61 4.20 166.75 4.14Q169.88 4.09 171.53 4.09L171.53 4.09L183.08 4.09Q194.08 4.09 201.18 9.37Q208.27 14.65 208.27 23.78L208.27 23.78Q208.27 32.14 201.50 37.91Q194.74 43.69 183.19 43.69L183.19 43.69L182.42 43.69Q184.51 47.10 187.04 48.36Q189.57 49.63 194.74 49.63L194.74 49.63L204.64 68Q208.05 74.27 210.31 76.08Q212.56 77.90 216.63 78.12L216.63 78.12ZM197.93 23.89L197.93 23.89Q197.93 14.43 194.57 9.81Q191.22 5.19 182.53 5.19L182.53 5.19L166.14 5.19L166.14 42.48L182.53 42.48Q191.11 42.48 194.52 38.08Q197.93 33.68 197.93 23.89Z"></path></g></svg>