<?xml version="1.0" encoding="UTF-8"?>
<svg id="Layer_1" data-name="Layer 1" xmlns="http://www.w3.org/2000/svg" viewBox="0 0 201.97 32">
  <defs>
    <style>
      .cls-1 {
        fill-rule: evenodd;
      }

      .cls-1, .cls-2 {
        fill: #f2eee6;
      }

      .cls-1, .cls-2, .cls-3 {
        stroke-width: 0px;
      }

      .cls-3 {
        fill: #f2eee6;
      }
    </style>
  </defs>
  <path class="cls-1" d="m6.4,25.6c.48,1.05,1.08,2.02,1.8,2.86.95,1.12,2.09,2.01,3.33,2.62,1.25.61,2.58.92,3.93.92s2.68-.31,3.93-.92c1.25-.61,2.38-1.5,3.33-2.62.72-.85,1.33-1.81,1.8-2.86-1.14,1.21-2.46,2.19-3.89,2.89-1.64.8-3.4,1.21-5.18,1.21s-3.54-.41-5.18-1.21c-1.43-.7-2.74-1.67-3.89-2.89Z"/>
  <path class="cls-1" d="m6.4,6.4c.48-1.05,1.08-2.02,1.8-2.86.95-1.12,2.09-2.01,3.33-2.62,1.25-.61,2.58-.92,3.93-.92s2.69.31,3.93.92c1.25.61,2.38,1.5,3.33,2.62.72.85,1.33,1.81,1.8,2.86-1.14-1.21-2.46-2.19-3.89-2.89-1.64-.8-3.4-1.21-5.18-1.21s-3.54.41-5.18,1.21c-1.43.7-2.74,1.67-3.89,2.89Z"/>
  <path class="cls-1" d="m6.4,25.6c-1.05-.5-2.02-1.15-2.86-1.91-1.12-1.01-2.01-2.21-2.62-3.53-.61-1.32-.92-2.73-.92-4.16s.31-2.84.92-4.16c.61-1.32,1.5-2.52,2.62-3.53.85-.76,1.81-1.4,2.86-1.91-1.21,1.21-2.19,2.6-2.89,4.12-.8,1.74-1.21,3.6-1.21,5.48s.41,3.75,1.21,5.48c.7,1.51,1.67,2.9,2.89,4.12Z"/>
  <path class="cls-1" d="m25.6,25.6c1.05-.5,2.02-1.15,2.86-1.91,1.12-1.01,2.01-2.21,2.62-3.53.61-1.32.92-2.73.92-4.16s-.31-2.84-.92-4.16c-.61-1.32-1.5-2.52-2.62-3.53-.85-.76-1.81-1.4-2.86-1.91,1.21,1.21,2.19,2.6,2.89,4.12.8,1.74,1.21,3.6,1.21,5.48s-.41,3.75-1.21,5.48c-.7,1.51-1.67,2.9-2.89,4.12Z"/>
  <path class="cls-2" d="m26.67,16c0,5.89-4.78,10.67-10.67,10.67s-10.67-4.78-10.67-10.67,4.78-10.67,10.67-10.67,10.67,4.78,10.67,10.67Zm-18.54,0c0,4.35,3.53,7.88,7.88,7.88s7.88-3.53,7.88-7.88-3.53-7.88-7.88-7.88-7.88,3.53-7.88,7.88Z"/>
  <path class="cls-3" d="m37.18,20.51v-7.37c0-.41-.06-.74-.17-.98-.11-.25-.36-.38-.75-.38h-.26v-.27h3.45c1.74,0,3.03.4,3.88,1.2.86.8,1.29,1.88,1.29,3.25,0,.88-.18,1.67-.55,2.36-.36.68-.9,1.22-1.62,1.61-.71.39-1.6.59-2.66.59h-2.61Zm2.57-.48c.65,0,1.23-.16,1.75-.49.52-.33.93-.79,1.22-1.39.31-.61.46-1.32.46-2.14s-.15-1.51-.45-2.11c-.3-.6-.71-1.07-1.22-1.4-.52-.34-1.11-.5-1.79-.5-.19,0-.4.02-.63.05-.22.04-.45.09-.68.16v7.65c.18.04.34.07.49.1.16.03.31.05.45.07.15,0,.29.01.41.01Z"/>
  <path class="cls-3" d="m53.6,20.64c-.3,0-.57-.06-.83-.18-.25-.13-.49-.33-.74-.61-.24-.29-.5-.69-.79-1.19l-1.32-2.32h-.92v4.16h-1.18v-7.37c0-.41-.06-.74-.17-.98-.11-.25-.36-.38-.75-.38h-.26v-.27h3.42c.22,0,.47.02.76.05.29.03.58.09.87.18.3.09.57.23.82.41.25.18.46.42.61.71.16.29.24.65.24,1.09,0,.52-.11.94-.33,1.26-.21.31-.48.55-.8.71-.32.16-.65.29-.97.37l1.38,2.39c.33.58.63.98.89,1.2.26.21.56.33.88.37v.27c-.07.04-.18.07-.33.1-.14.03-.3.04-.47.04Zm-4.59-4.77h.95c.19,0,.41-.04.64-.11.24-.07.47-.18.68-.33.22-.15.4-.35.54-.6.14-.25.21-.55.21-.9s-.07-.65-.21-.9c-.14-.25-.32-.45-.54-.6-.22-.15-.45-.27-.68-.34-.24-.07-.45-.11-.64-.11-.14,0-.3.01-.49.04-.18.03-.33.06-.46.1v3.75Z"/>
  <path class="cls-3" d="m61.57,20.51v-7.37c0-.41-.06-.74-.17-.98-.11-.25-.36-.38-.75-.38h-.26v-.27h5.61c.31,0,.54.05.7.16.16.1.27.24.33.41.06.16.09.34.09.52v1.02h-.26c0-.55-.14-.94-.43-1.19-.28-.25-.68-.38-1.21-.38h-2.45v3.55h3.55v.55h-3.55v3.82h2.3c.6,0,1.07-.11,1.41-.34.35-.23.63-.61.83-1.16l.26.07-.46,1.3c-.07.21-.19.38-.36.5-.16.12-.37.18-.63.18h-4.54Z"/>
  <path class="cls-3" d="m70.65,20.51v-7.37c0-.41-.06-.74-.17-.98-.11-.25-.36-.38-.75-.38h-.26v-.27h1.18c.31,0,.54.04.71.12.18.08.3.24.37.48.07.24.11.58.11,1.04v6.82h4.67v.55h-5.86Z"/>
  <path class="cls-3" d="m80.08,20.51c-.31,0-.55-.04-.72-.12-.17-.08-.29-.24-.36-.48-.07-.24-.11-.58-.11-1.04v-7.37h1.18v7.37c0,.41.05.74.16,1,.11.25.37.37.76.37h.26v.27h-1.18Z"/>
  <path class="cls-3" d="m83.11,20.51v-.27l5.46-8.18h-3.16c-.53,0-.93.13-1.22.38-.28.25-.42.64-.42,1.19h-.26v-1.02c0-.18.03-.35.09-.52.06-.17.17-.31.33-.41.17-.11.4-.16.7-.16h5.73l-5.59,8.46h5.4v.55h-7.04Z"/>
  <path class="cls-3" d="m100.07,20.58c-.19,0-.43-.04-.71-.11-.28-.08-.56-.25-.83-.49-.27-.25-.5-.65-.7-1.17l-.33-.89h-3.69l-1.05,2.59h-.59l3.69-9h.39l2.9,7.3c.21.51.41.87.61,1.08.19.2.47.32.84.35v.27c-.07.02-.15.03-.25.04-.09.02-.18.03-.28.03Zm-6.05-3.21h3.22l-1.58-3.96-1.65,3.96Z"/>
  <path class="cls-3" d="m102.95,20.51v-7.37c0-.41-.06-.74-.17-.98-.1-.25-.35-.38-.75-.38h-.26v-.27h3.42c.34,0,.71.03,1.12.08.41.05.8.16,1.17.33.37.15.67.39.91.71.24.32.36.74.36,1.27,0,.41-.14.79-.41,1.15-.27.35-.71.62-1.3.83.57.09,1.01.24,1.33.45.32.2.54.45.66.74.12.29.18.62.18,1,0,.51-.11.93-.33,1.26-.22.32-.51.56-.87.74-.35.17-.74.3-1.17.37-.42.06-.84.1-1.25.1h-2.63Zm2.43-.48c.8,0,1.41-.16,1.84-.49.44-.33.66-.8.66-1.42s-.21-1.09-.63-1.42c-.42-.33-1.04-.49-1.87-.49h-1.25v3.63c.2.06.41.11.62.15.22.03.43.04.63.04Zm-1.25-4.37h1.25c.35,0,.68-.07,1-.2.32-.14.59-.34.79-.61.21-.27.32-.61.32-1.02,0-.44-.13-.79-.38-1.06-.25-.27-.55-.47-.92-.59-.36-.13-.72-.19-1.07-.19-.17,0-.34.01-.53.04-.18.03-.33.06-.46.1v3.55Z"/>
  <path class="cls-3" d="m112.46,20.51v-7.37c0-.41-.06-.74-.17-.98-.11-.25-.36-.38-.75-.38h-.26v-.27h5.61c.31,0,.54.05.7.16.16.1.27.24.33.41.06.16.09.34.09.52v1.02h-.26c0-.55-.15-.94-.43-1.19-.28-.25-.69-.38-1.21-.38h-2.45v3.55h3.55v.55h-3.55v3.82h2.3c.6,0,1.07-.11,1.41-.34.35-.23.63-.61.83-1.16l.26.07-.46,1.3c-.07.21-.19.38-.36.5-.16.12-.37.18-.63.18h-4.54Z"/>
  <path class="cls-3" d="m123.51,20.51v-8.46h-1.19c-.53,0-.93.13-1.22.38-.28.25-.42.64-.42,1.19h-.26v-1.02c0-.18.03-.35.09-.52.06-.17.17-.31.33-.41.17-.11.4-.16.7-.16h6.12v.55h-2.96v8.46h-1.18Z"/>
  <path class="cls-3" d="m130.52,20.51v-7.37c0-.41-.06-.74-.17-.98-.1-.25-.35-.38-.75-.38h-.26v-.27h1.18c.31,0,.54.04.71.12.18.08.3.24.37.48.07.24.1.58.1,1.04v2.46h3.95v-4.09h1.18v7.37c0,.41.05.74.16,1,.11.25.37.37.76.37h.26v.27h-1.18c-.31,0-.55-.04-.72-.12-.17-.08-.29-.24-.36-.48-.07-.24-.1-.58-.1-1.04v-2.73h-3.95v4.36h-1.18Z"/>
  <path class="cls-3" d="m145.57,20.51v-7.37c0-.41-.06-.74-.17-.98-.1-.25-.35-.38-.75-.38h-.26v-.27h1.18c.31,0,.54.04.71.12.17.08.3.24.37.48.07.24.11.58.11,1.04v2.46h3.95v-4.09h1.18v7.37c0,.41.05.74.16,1,.12.25.37.37.76.37h.26v.27h-1.18c-.31,0-.55-.04-.72-.12-.17-.08-.29-.24-.36-.48-.07-.24-.1-.58-.1-1.04v-2.73h-3.95v4.36h-1.18Z"/>
  <path class="cls-3" d="m162.8,20.58c-.19,0-.43-.04-.71-.11-.28-.08-.56-.25-.83-.49-.27-.25-.51-.65-.7-1.17l-.33-.89h-3.69l-1.05,2.59h-.59l3.68-9h.4l2.89,7.3c.21.51.41.87.61,1.08.19.2.47.32.84.35v.27c-.07.02-.15.03-.25.04-.09.02-.18.03-.28.03Zm-6.05-3.21h3.22l-1.58-3.96-1.64,3.96Z"/>
  <path class="cls-3" d="m167.09,20.64l-2.55-7.54c-.18-.52-.36-.88-.57-1.08-.19-.2-.49-.32-.88-.35v-.27s.1,0,.21-.01c.1,0,.18-.01.24-.01.25,0,.51.04.79.11.28.06.55.22.8.46.26.25.48.63.66,1.16l1.76,5.27,1.41-4.32-.32-.94c-.18-.52-.37-.88-.57-1.08-.19-.2-.49-.32-.88-.35v-.27s.1,0,.2-.01c.11,0,.19-.01.25-.01.25,0,.51.04.79.11.28.06.55.22.8.46.26.25.48.63.66,1.16l1.76,5.27,2.25-6.86h.57l-3.01,9.14h-.26l-1.95-5.74-1.89,5.74h-.26Z"/>
  <path class="cls-3" d="m184.39,20.64c-.24,0-.5-.04-.78-.12-.28-.08-.59-.24-.92-.48-.33-.24-.71-.58-1.13-1.04l-2.76-3v4.5h-1.18v-7.37c0-.41-.06-.74-.17-.98-.11-.25-.36-.38-.75-.38h-.26v-.27h1.18c.31,0,.54.04.71.12.18.08.3.24.37.48.07.24.11.58.11,1.04v2.66l2.76-2.86c.22-.23.43-.45.64-.67.21-.22.44-.4.68-.55.25-.15.56-.22.91-.22h.66v.34c-.36,0-.68.07-.96.2-.27.13-.59.38-.95.75l-2.57,2.66,3.03,3.27c.25.25.5.49.75.71.26.22.52.4.78.55.25.14.49.22.71.26v.26c-.1.04-.21.07-.35.1-.13.03-.3.04-.5.04Z"/>
  <path class="cls-3" d="m187.84,20.51v-7.37c0-.41-.06-.74-.17-.98-.1-.25-.35-.38-.75-.38h-.26v-.27h5.61c.31,0,.54.05.7.16.16.1.27.24.33.41.06.16.09.34.09.52v1.02h-.26c0-.55-.15-.94-.43-1.19-.28-.25-.68-.38-1.21-.38h-2.45v3.55h3.55v.55h-3.55v3.82h2.3c.6,0,1.07-.11,1.41-.34.35-.23.63-.61.83-1.16l.26.07-.46,1.3c-.07.21-.19.38-.36.5-.16.12-.37.18-.63.18h-4.54Z"/>
  <path class="cls-3" d="m199.23,20.74c-.35,0-.71-.04-1.07-.12-.35-.07-.68-.18-.97-.33-.29-.15-.52-.32-.7-.52-.18-.21-.26-.44-.26-.7v-1.46h.24c.15.92.44,1.58.87,1.98.44.4,1.03.6,1.78.6.3,0,.58-.05.84-.15.26-.11.47-.27.63-.48.17-.21.25-.46.25-.76,0-.4-.12-.74-.37-1.02-.24-.28-.6-.57-1.08-.86l-1.62-1c-.56-.35-.96-.7-1.2-1.05-.23-.35-.34-.79-.34-1.3,0-.7.23-1.26.7-1.68.47-.43,1.09-.64,1.86-.64.32,0,.65.04.99.11.33.07.64.18.92.33.28.14.5.3.67.5.18.2.26.43.26.7v1.46h-.24c-.15-.92-.44-1.57-.86-1.96-.42-.39-1-.59-1.75-.59-.26,0-.5.06-.74.18-.24.11-.43.27-.58.48-.14.2-.21.44-.21.72,0,.39.12.71.37.97.24.25.61.53,1.09.82l1.62,1c.56.35.97.68,1.24,1.01.26.32.4.73.4,1.24,0,.76-.25,1.38-.74,1.84-.49.45-1.16.68-2,.68Z"/>
</svg>