<svg fill="#f2eee6" xmlns="http://www.w3.org/2000/svg" viewBox="0 0 110.49 8.68"><g id="Layer_2" data-name="Layer 2"><g id="Layer_1-2" data-name="Layer 1"><path d="M3.27,8.54H0V.14H3.27A4.19,4.19,0,0,1,7.74,4.32v0A4.21,4.21,0,0,1,3.27,8.54Zm2.54-4.2A2.41,2.41,0,0,0,3.27,1.81H1.85V6.87H3.27a2.39,2.39,0,0,0,2.54-2.5Z"/><path d="M14.26,8.54,12.47,5.85H11V8.54H9.17V.14H13c2,0,3.16,1,3.16,2.77v0a2.6,2.6,0,0,1-1.8,2.6l2.05,3ZM14.3,3c0-.79-.55-1.2-1.45-1.2H11V4.22h1.88c.9,0,1.41-.48,1.41-1.19Z"/><path d="M24.79,5.19V8.54H23V5.23L19.72.14h2.16l2,3.37,2-3.37H28Z"/><path d="M35,8.54l-.77-1.88H30.67L29.9,8.54H28L31.62.08h1.7l3.6,8.46ZM32.45,2.3,31.33,5h2.23Z"/><path d="M37.92,8.54V.14h1.85V6.86H44V8.54Z"/><path d="M48.23,8.54H45V.14h3.28a4.19,4.19,0,0,1,4.46,4.18v0A4.21,4.21,0,0,1,48.23,8.54Zm2.53-4.2a2.41,2.41,0,0,0-2.53-2.53H46.8V6.87h1.43a2.39,2.39,0,0,0,2.53-2.5Z"/><path d="M59.66,8.54l-.77-1.88H55.34l-.77,1.88H52.69L56.29.08H58l3.6,8.46ZM57.11,2.3,56,5h2.23Z"/><path d="M68.7,8.68a4.17,4.17,0,0,1-4.18-4.31v0A4.22,4.22,0,0,1,68.72,0,4.42,4.42,0,0,1,72,1.34l-.44.46A3.84,3.84,0,0,0,68.71.56a3.6,3.6,0,0,0-3.54,3.76v0a3.63,3.63,0,0,0,3.55,3.78,3.84,3.84,0,0,0,2.89-1.31l.42.41A4.38,4.38,0,0,1,68.7,8.68Z"/><path d="M74,8.54V.14h.63V8h4.93v.58Z"/><path d="M81.59,8.54V.14h.62v8.4Z"/><path d="M90.72,8.54,84.81,1.08V8.54h-.6V.14h.59l5.79,7.31V.14h.6v8.4Z"/><path d="M93.19,8.54V.14h.62v8.4Z"/><path d="M100,8.68a4.17,4.17,0,0,1-4.18-4.31v0A4.22,4.22,0,0,1,100,0a4.42,4.42,0,0,1,3.26,1.34l-.44.46A3.84,3.84,0,0,0,100,.56a3.59,3.59,0,0,0-3.54,3.76v0A3.63,3.63,0,0,0,100,8.12a3.84,3.84,0,0,0,2.89-1.31l.42.41A4.42,4.42,0,0,1,100,8.68Z"/><path d="M107.7,8.66a4.78,4.78,0,0,1-3.38-1.34l.41-.47a4.07,4.07,0,0,0,3,1.25c1.26,0,2.12-.71,2.12-1.67v0c0-.88-.47-1.4-2.37-1.78s-2.83-1.09-2.83-2.37v0A2.43,2.43,0,0,1,107.36,0a4.18,4.18,0,0,1,2.87,1l-.39.5a3.58,3.58,0,0,0-2.51-.95c-1.23,0-2,.7-2,1.58v0c0,.89.46,1.43,2.45,1.84s2.76,1.09,2.76,2.31v0C110.49,7.72,109.32,8.66,107.7,8.66Z"/></g></g></svg>