<?xml version="1.0" encoding="utf-8"?>
<!-- Generator: Adobe Illustrator 25.4.1, SVG Export Plug-In . SVG Version: 6.00 Build 0)  -->
<svg version="1.1" id="Layer_1" xmlns="http://www.w3.org/2000/svg" xmlns:xlink="http://www.w3.org/1999/xlink" x="0px" y="0px"
	 viewBox="0 0 1790.8 622.5" style="enable-background:new 0 0 1790.8 622.5;" xml:space="preserve">
<style type="text/css">
	.st0{fill:#f2eee6;}
	.st1{fill:#f2eee6;}
	.st2{fill:#f2eee6;}
	.st3{fill:#f2eee6;}
	.st4{fill:#f2eee6;}
	.st5{fill:#f2eee6;}
	.st6{fill:#f2eee6;}
</style>
<g>
	<g>
		<path class="st1" d="M241.3,222.2c0.7,0,3.6,0,8.8,0.1c5.2,0.1,10.1,0.1,14.7,0.1c12.5,0,23.9,1.5,34.1,4.6
			c10.1,3.1,19.3,7.9,27.5,14.3c8.2,6.5,14.5,15.4,19,26.7c4.5,11.4,6.7,24.7,6.7,40c0,31.5-7.8,54.7-23.5,69.6
			c-15.7,15-36.8,22.4-63.5,22.4h-36.9h-26.8c5-5.2,7.5-14.4,7.5-27.9V250.1c0-6-0.6-11.4-1.8-16c-1.2-4.6-2.5-7.7-3.9-9.3l-1.8-2.6
			l26.8,0.3c2.4,0,4.4,0,5.9-0.1C235.7,222.3,238.1,222.2,241.3,222.2z M228.2,226.9v168.7h36.9c19.8,0,35.9-8.1,48.2-24.4
			c12.4-16.3,18.6-37.3,18.6-63.1c0-24.9-6.1-44.7-18.4-59.3s-28.4-21.9-48.4-21.9H228.2z"/>
		<path class="st1" d="M458.5,222.2h17.3c7,0,13.6,0.8,19.7,2.3c6.1,1.5,11.9,4,17.4,7.3c5.5,3.4,9.8,8.2,13,14.6
			c3.2,6.4,4.8,13.8,4.8,22.4c0,9.5-1.6,17.6-4.8,24.5c-3.2,6.9-7.5,12.1-13,15.6c-5.5,3.5-11.3,6.1-17.4,7.6
			c-6.1,1.5-12.7,2.3-19.7,2.3h-10.6c14.8,2.4,27.2,7.8,37.1,16.3c7.4,6.2,13.2,13.8,17.4,23c4.2,9.1,7.6,17.6,10.2,25.5
			c2.6,7.9,5.6,13.4,9,16.5c-0.5,0-2.2,0-5,0c-2.8,0-4.6,0-5.4,0c-0.8,0-2.4-0.1-4.8-0.4c-2.4-0.3-4-0.6-4.9-1
			c-0.9-0.4-2.2-1.1-4-1.9c-1.8-0.9-3.2-1.9-4.1-3.2c-0.9-1.3-1.9-2.9-3-4.9c-1-2-1.9-4.2-2.6-6.6c-0.2-0.5-0.6-2.2-1.4-5.2
			c-0.8-2.9-1.2-4.8-1.4-5.5c-0.2-0.8-0.6-2.5-1.4-5.2c-0.8-2.7-1.3-4.5-1.7-5.4c-0.3-0.9-0.9-2.5-1.8-4.8c-0.9-2.2-1.6-3.9-2.3-5
			c-0.7-1.1-1.6-2.6-2.7-4.4s-2.2-3.3-3.2-4.5c-1-1.2-2.2-2.5-3.6-3.9c-1.4-1.4-2.8-2.7-4.4-3.9c-7.2-5.5-15.5-9.4-24.8-11.6
			c-9.3-2.2-20.6-3.4-34.1-3.6v81h-19.6V250.1c0-6-0.6-11.4-1.8-16c-1.2-4.6-2.5-7.7-3.9-9.3l-1.8-2.6h27.1H458.5z M422.4,226.9
			v87.4h53.4c10.7,0,19.3-4.3,25.8-12.8c6.5-8.5,9.8-19.4,9.8-32.6c0-12.9-3.2-23.1-9.7-30.7c-6.5-7.6-15.1-11.4-25.9-11.4H422.4z"
			/>
		<path class="st1" d="M723.7,222.5h29.7l58,100.6l58-100.6h5.4L813.5,329v71.2h-19.6V329c-0.3-0.7-3.7-6.5-9.9-17.4
			c-6.3-10.9-13.8-23.9-22.4-39c-8.7-15-15.7-27.2-21-36.5C736.5,229.6,730.9,225.1,723.7,222.5z"/>
		<path class="st1" d="M927.9,222.2h28.9l76.4,178h-21.4c-10.3-24.1-18.2-42.6-23.7-55.5h-86.2l-23.5,55.5h-4.9L941.9,238
			C938.6,232.3,934,227.1,927.9,222.2z M944.7,243.4l-40.8,96.7h82c-5-11.5-11.9-27.8-20.8-48.8
			C956.4,270.4,949.5,254.4,944.7,243.4z"/>
		<path class="st1" d="M1100.5,222.2v173.4h68.4c7.7,0,15.6-2.1,23.5-6.2c7.9-4.1,13.2-8,16-11.6l-1.8,22.4h-121h-4.4V250.1
			c0-5.3-0.6-9.9-1.8-13.8c-1.2-3.9-2.5-6.3-3.9-7.3l-1.8-1.8L1100.5,222.2z"/>
		<path class="st1" d="M1289,222.2c0.7,0,3.6,0,8.8,0.1c5.2,0.1,10.1,0.1,14.7,0.1c12.5,0,23.9,1.5,34.1,4.6
			c10.1,3.1,19.3,7.9,27.5,14.3c8.2,6.5,14.5,15.4,19,26.7c4.5,11.4,6.7,24.7,6.7,40c0,31.5-7.8,54.7-23.5,69.6
			c-15.7,15-36.8,22.4-63.5,22.4h-36.9H1249c5-5.2,7.5-14.4,7.5-27.9V250.1c0-6-0.6-11.4-1.8-16c-1.2-4.6-2.5-7.7-3.9-9.3l-1.8-2.6
			l26.8,0.3c2.4,0,4.4,0,5.9-0.1C1283.3,222.3,1285.7,222.2,1289,222.2z M1275.8,226.9v168.7h36.9c19.8,0,35.9-8.1,48.2-24.4
			c12.4-16.3,18.6-37.3,18.6-63.1c0-24.9-6.1-44.7-18.4-59.3c-12.3-14.6-28.4-21.9-48.4-21.9H1275.8z"/>
		<path class="st1" d="M1484.2,222.2h28.9l76.4,178H1568c-10.3-24.1-18.2-42.6-23.7-55.5h-86.2l-23.5,55.5h-4.9l68.4-162.3
			C1494.9,232.3,1490.2,227.1,1484.2,222.2z M1501,243.4l-40.8,96.7h82c-5-11.5-11.9-27.8-20.8-48.8
			C1512.6,270.4,1505.8,254.4,1501,243.4z"/>
	</g>
	<path class="st1" d="M676,333.9c0.7,15.2-10.5,21.1-21,21.1c-1.9,0-3.8-0.2-5.7-0.6c-1.1-0.2-2.1-0.5-3.1-0.9
		c-3.4-1.2-6.4-3.2-8.6-6.1c-2.5-3.3-3.9-7.7-3.6-13.4c0.4-7,6.4-16.3,11.1-24.6c5.6-10.1,9.9-18.7,9.9-19c0-0.2,3.6,8.2,9.2,18.2
		C668.8,317.1,675.6,326.8,676,333.9z"/>
</g>
</svg>
