<?xml version="1.0" encoding="utf-8"?>
<!-- Generator: Adobe Illustrator 25.4.1, SVG Export Plug-In . SVG Version: 6.00 Build 0)  -->
<svg version="1.1" id="Layer_1" xmlns="http://www.w3.org/2000/svg" xmlns:xlink="http://www.w3.org/1999/xlink" x="0px" y="0px"
	 viewBox="0 0 1790.8 622.5" style="enable-background:new 0 0 1790.8 622.5;" xml:space="preserve">
<style type="text/css">
	.st0{fill:#2D2C2A;}
	.st1{fill:#FFFFFF;}
	.st2{fill:#B6B4B2;}
	.st3{fill:#9BB9CB;}
	.st4{fill:#B9D3DF;}
	.st5{fill:#E5DCD7;}
	.st6{fill:#F6F2EF;}
</style>
<g>
	<g>
		<g>
			<path class="st1" d="M274.2,163.6c0.7,0,3.4,0,8.3,0.1c4.9,0.1,9.5,0.1,13.9,0.1c11.9,0,22.7,1.5,32.3,4.4
				c9.6,2.9,18.3,7.5,26.1,13.6c7.7,6.1,13.7,14.6,18,25.3c4.2,10.8,6.4,23.4,6.4,37.9c0,29.8-7.4,51.9-22.3,66.1
				c-14.8,14.2-34.9,21.3-60.2,21.3h-35h-25.4c4.7-4.9,7.1-13.7,7.1-26.4V190c0-5.7-0.6-10.8-1.7-15.2c-1.1-4.4-2.4-7.3-3.7-8.8
				l-1.7-2.4l25.4,0.2c2.3,0,4.2,0,5.6-0.1C268.8,163.6,271.1,163.6,274.2,163.6z M261.7,168v160h35c18.8,0,34-7.7,45.8-23.1
				c11.7-15.4,17.6-35.4,17.6-59.8c0-23.6-5.8-42.4-17.5-56.3c-11.7-13.9-27-20.8-45.9-20.8H261.7z"/>
			<path class="st1" d="M480.2,163.6h16.4c6.7,0,12.9,0.7,18.7,2.2c5.8,1.5,11.3,3.8,16.5,7c5.2,3.2,9.3,7.8,12.4,13.8
				c3,6,4.5,13.1,4.5,21.3c0,9-1.5,16.7-4.5,23.2c-3,6.5-7.1,11.5-12.4,14.8c-5.2,3.3-10.7,5.7-16.5,7.2c-5.8,1.5-12,2.2-18.7,2.2
				h-10c14,2.3,25.8,7.4,35.2,15.4c7,5.9,12.5,13.1,16.5,21.8c4,8.6,7.2,16.7,9.7,24.2c2.4,7.5,5.3,12.7,8.6,15.7
				c-0.5,0-2.1,0-4.8,0c-2.7,0-4.4,0-5.1,0c-0.7,0-2.2-0.1-4.5-0.4c-2.3-0.2-3.8-0.6-4.7-1c-0.8-0.4-2.1-1-3.8-1.8
				c-1.7-0.8-3-1.8-3.9-3.1c-0.9-1.2-1.8-2.8-2.8-4.6c-1-1.9-1.8-4-2.4-6.2c-0.2-0.5-0.6-2.1-1.3-4.9c-0.7-2.8-1.2-4.5-1.3-5.3
				c-0.2-0.7-0.6-2.4-1.3-4.9c-0.7-2.5-1.3-4.2-1.6-5.1c-0.3-0.9-0.9-2.4-1.7-4.5c-0.8-2.1-1.6-3.7-2.2-4.8s-1.5-2.4-2.6-4.2
				c-1.1-1.7-2.1-3.1-3.1-4.3c-1-1.1-2.1-2.4-3.4-3.7c-1.3-1.3-2.7-2.5-4.2-3.7c-6.8-5.2-14.7-8.9-23.5-11
				c-8.8-2.1-19.6-3.3-32.3-3.4v76.8h-18.6V190c0-5.7-0.6-10.8-1.7-15.2c-1.1-4.4-2.4-7.3-3.7-8.8l-1.7-2.4h25.7H480.2z M445.9,168
				v82.9h50.6c10.1,0,18.3-4,24.5-12.1c6.2-8.1,9.3-18.4,9.3-30.9c0-12.2-3.1-21.9-9.2-29.1c-6.1-7.2-14.3-10.8-24.6-10.8H445.9z"/>
			<path class="st1" d="M731.7,163.8h28.1l55,95.4l55.1-95.4h5.1l-58.2,101v67.5h-18.6v-67.5c-0.3-0.7-3.5-6.2-9.4-16.5
				c-6-10.4-13.1-22.7-21.3-36.9c-8.2-14.3-14.9-25.8-19.9-34.6C743.9,170.6,738.6,166.3,731.7,163.8z"/>
			<path class="st1" d="M925.4,163.6h27.4l72.4,168.8h-20.3c-9.8-22.8-17.3-40.4-22.5-52.6h-81.7l-22.3,52.6h-4.7l64.8-153.9
				C935.5,173.1,931.1,168.2,925.4,163.6z M941.3,183.7l-38.7,91.7h77.8c-4.7-10.9-11.3-26.3-19.7-46.2
				C952.4,209.3,945.9,194.1,941.3,183.7z"/>
			<path class="st1" d="M1089.1,163.6V328h64.8c7.3,0,14.8-2,22.3-5.9c7.5-3.9,12.6-7.6,15.2-11l-1.7,21.3h-114.7h-4.2V190
				c0-5.1-0.6-9.4-1.7-13.1c-1.1-3.7-2.4-6-3.7-7l-1.7-1.7L1089.1,163.6z"/>
			<path class="st1" d="M1267.9,163.6c0.7,0,3.4,0,8.3,0.1c4.9,0.1,9.5,0.1,13.9,0.1c11.9,0,22.7,1.5,32.3,4.4
				c9.6,2.9,18.3,7.5,26.1,13.6c7.7,6.1,13.7,14.6,18,25.3c4.2,10.8,6.4,23.4,6.4,37.9c0,29.8-7.4,51.9-22.3,66.1
				c-14.8,14.2-34.9,21.3-60.2,21.3h-35h-25.4c4.7-4.9,7.1-13.7,7.1-26.4V190c0-5.7-0.6-10.8-1.7-15.2c-1.1-4.4-2.4-7.3-3.7-8.8
				l-1.7-2.4l25.4,0.2c2.3,0,4.2,0,5.6-0.1C1262.5,163.6,1264.8,163.6,1267.9,163.6z M1255.4,168v160h35c18.8,0,34-7.7,45.8-23.1
				c11.7-15.4,17.6-35.4,17.6-59.8c0-23.6-5.8-42.4-17.5-56.3c-11.7-13.9-27-20.8-45.9-20.8H1255.4z"/>
			<path class="st1" d="M1453,163.6h27.4l72.4,168.8h-20.3c-9.8-22.8-17.3-40.4-22.5-52.6h-81.7l-22.3,52.6h-4.7l64.8-153.9
				C1463.1,173.1,1458.7,168.2,1453,163.6z M1468.9,183.7l-38.7,91.7h77.8c-4.7-10.9-11.3-26.3-19.7-46.2
				C1480,209.3,1473.5,194.1,1468.9,183.7z"/>
		</g>
		<path class="st1" d="M686.4,269.5c0.7,14.4-10,20-19.9,20c-1.8,0-3.6-0.2-5.4-0.6c-1-0.2-2-0.5-3-0.8c-3.2-1.2-6.1-3-8.2-5.8
			c-2.4-3.1-3.7-7.3-3.4-12.7c0.4-6.6,6.1-15.4,10.5-23.4c5.3-9.6,9.4-17.8,9.4-18c0-0.2,3.4,7.8,8.7,17.3
			C679.6,253.6,686.1,262.7,686.4,269.5z"/>
	</g>
	<g>
		<path class="st1" d="M234,445.3c6.5,5.2,14.3,8.2,23.2,8.2c9.2,0,15.5-3.7,15.5-10c0-4.4-3.4-7.1-10-8.1l-15.6-2.3
			c-8.5-1.2-13.3-4.9-13.3-12.2c0-9.2,8.4-14.3,21-14.3c8.9,0,15.3,1.9,19.5,5.2l1.1,7.5c-5.1-4.6-11.6-7.2-20.2-7.2
			c-8.5,0-15.2,2.6-15.2,8.4c0,4.1,2.4,6.1,8.2,7l15.8,2.3c9.7,1.4,14.9,6,14.9,13.3c0,10.2-9.2,15.8-21.6,15.8
			c-9.2,0-17.3-2.7-22.1-6.1L234,445.3z"/>
		<path class="st1" d="M327.8,457.9v-50.2h6.3v23.1l29.4-23.1h8.7l-30.7,23.8l31.5,26.4h-8.7l-30.2-25.6v25.6H327.8z"/>
		<path class="st1" d="M420.7,457.9v-50.2h6.2v50.2H420.7z"/>
		<path class="st1" d="M478.6,457.9v-50.2h6.7l35.3,42.1v-42.1h6v50.2h-6.2l-35.8-42.4v42.4H478.6z"/>
		<path class="st1" d="M644.4,431.6c-7.4-1.4-10.6-5.4-10.6-11.3c0-8.5,7.8-13.4,20.9-13.4c7.5,0,13.9,1.5,18.1,4.1l0.9,6.4
			c-5-3.3-11.5-5.2-18.6-5.2c-8.6,0-15,2.4-15,8.4c0,4.9,4.2,8.5,11.5,8.5h34.3v5.1h-9.5v23.7h-24.4c-13.3,0-20.6-5.4-20.6-14.4
			C631.3,436.7,636.5,431.8,644.4,431.6z M652.4,453h18v-18.8h-19.2c-8.9,0-13.7,3.4-13.7,9.2C637.5,449.8,643,453,652.4,453z"/>
		<path class="st1" d="M813,406.7c7.7,0,13.4,1.9,17.3,5.2l1.1,8c-4.4-4.9-10.3-7.7-17.8-7.7c-13.7,0-21.4,9.8-21.4,20.5
			s7.7,20.5,21.4,20.5c7.7,0,14.1-2.7,18.6-7.7l-1.1,8c-3.9,3.2-10.4,5.3-18.1,5.3c-17.2,0-27-12.1-27-26.1
			C786,418.9,795.8,406.7,813,406.7z"/>
		<path class="st1" d="M879.3,432.8c0-13.7,9.4-26.1,26.3-26.1c17,0,26.4,12.4,26.4,26.1c0,13.7-9.4,26.1-26.4,26.1
			C888.7,458.9,879.3,446.5,879.3,432.8z M925.8,432.8c0-10.9-7.2-20.6-20.2-20.6c-12.9,0-20.1,9.7-20.1,20.6
			c0,10.9,7.2,20.6,20.1,20.6C918.6,453.3,925.8,443.7,925.8,432.8z"/>
		<path class="st1" d="M979.3,445.3c6.5,5.2,14.3,8.2,23.2,8.2c9.2,0,15.5-3.7,15.5-10c0-4.4-3.4-7.1-10-8.1l-15.6-2.3
			c-8.5-1.2-13.3-4.9-13.3-12.2c0-9.2,8.4-14.3,21-14.3c8.9,0,15.3,1.9,19.5,5.2l1.1,7.5c-5.1-4.6-11.6-7.2-20.2-7.2
			c-8.5,0-15.2,2.6-15.2,8.4c0,4.1,2.4,6.1,8.2,7l15.8,2.3c9.7,1.4,14.9,6,14.9,13.3c0,10.2-9.2,15.8-21.6,15.8
			c-9.2,0-17.3-2.7-22.1-6.1L979.3,445.3z"/>
		<path class="st1" d="M1122.5,407.7h7.8v50.2h-6v-42.4l-22.1,42.4h-1.1l-22.1-42.4v42.4h-6v-50.2h8l20.8,39.8L1122.5,407.7z"/>
		<path class="st1" d="M1182.1,457.9v-50.2h40.1v5.5h-33.9v16.1h33.8v5.5h-33.8v17.6h34.4v5.5H1182.1z"/>
		<path class="st1" d="M1288.4,457.9v-44.7h-19.5v-5.5h45.2v5.5h-19.6v44.7H1288.4z"/>
		<path class="st1" d="M1362.5,457.9v-50.2h6.2v50.2H1362.5z"/>
		<path class="st1" d="M1445.1,406.7c7.7,0,13.4,1.9,17.3,5.2l1.1,8c-4.4-4.9-10.3-7.7-17.8-7.7c-13.7,0-21.4,9.8-21.4,20.5
			s7.7,20.5,21.4,20.5c7.7,0,14.1-2.7,18.6-7.7l-1.1,8c-3.9,3.2-10.4,5.3-18.1,5.3c-17.2,0-27-12.1-27-26.1
			C1418.1,418.9,1427.9,406.7,1445.1,406.7z"/>
		<path class="st1" d="M1511.9,445.3c6.5,5.2,14.3,8.2,23.2,8.2c9.2,0,15.5-3.7,15.5-10c0-4.4-3.4-7.1-10-8.1l-15.6-2.3
			c-8.5-1.2-13.3-4.9-13.3-12.2c0-9.2,8.4-14.3,21-14.3c8.9,0,15.3,1.9,19.5,5.2l1.1,7.5c-5.1-4.6-11.6-7.2-20.2-7.2
			c-8.5,0-15.2,2.6-15.2,8.4c0,4.1,2.4,6.1,8.2,7l15.8,2.3c9.7,1.4,14.9,6,14.9,13.3c0,10.2-9.2,15.8-21.6,15.8
			c-9.2,0-17.3-2.7-22.1-6.1L1511.9,445.3z"/>
	</g>
</g>
</svg>
